<?xml version="1.0" encoding="UTF-8"?>
<svg version="1.1" xmlns="http://www.w3.org/2000/svg" width="666" height="123">
<path d="M0 0 C2.72560368 0.50790663 5.22345458 0.63047425 7.99409103 0.64606476 C9.57988716 0.65858025 9.57988716 0.65858025 11.19771957 0.67134857 C12.92166191 0.6776252 12.92166191 0.6776252 14.68043137 0.68402863 C15.89875153 0.69232193 17.11707169 0.70061523 18.37231064 0.70915985 C21.01543236 0.72654628 23.65849778 0.74220083 26.30163956 0.75493622 C30.47776851 0.77519628 34.65382867 0.80283998 38.82990646 0.83161163 C48.44258862 0.89672104 58.05532135 0.95230278 67.66806412 1.00759888 C76.49014148 1.05841685 85.3121936 1.1112343 94.13420796 1.17212439 C98.28943911 1.2005213 102.44466182 1.22409848 106.59994173 1.24404907 C109.78174508 1.26052754 112.96350433 1.28333821 116.14527512 1.30512238 C117.88136284 1.311399 117.88136284 1.311399 119.65252304 1.31780243 C120.69844116 1.32614609 121.74435928 1.33448975 122.82197189 1.34308624 C123.73634899 1.34823997 124.65072609 1.35339371 125.59281158 1.35870361 C127.65406418 1.4945755 127.65406418 1.4945755 128.65406418 2.4945755 C128.78687668 4.3070755 128.78687668 4.3070755 128.77906418 6.4945755 C128.7816423 7.2164505 128.78422043 7.9383255 128.78687668 8.6820755 C128.65406418 10.4945755 128.65406418 10.4945755 127.65406418 11.4945755 C125.69118652 11.61820848 123.72391259 11.6725299 121.75733566 11.69989777 C119.8654879 11.7298156 119.8654879 11.7298156 117.93542099 11.76033783 C116.54866791 11.77732345 115.16191352 11.79420221 113.77515793 11.81098175 C112.36410528 11.83154476 110.95305888 11.85254105 109.54201889 11.87395477 C105.82172827 11.92924305 102.10138145 11.97862236 98.38099289 12.02680206 C94.58719993 12.07696792 90.79348895 12.13267958 86.9997673 12.18793488 C79.55126895 12.29559901 72.10270259 12.39702547 64.65406418 12.4945755 C64.64375671 13.39215576 64.63344925 14.28973602 64.62282944 15.21451569 C64.52497316 23.66102584 64.42247579 32.10746403 64.31472492 40.55385399 C64.25949 44.89653585 64.20606909 49.23922445 64.15674973 53.58197784 C64.10911456 57.77061815 64.05677207 61.95917528 64.00112343 66.14771652 C63.98069602 67.74812634 63.96198358 69.34855898 63.94499016 70.94900894 C63.92095463 73.18547334 63.89089906 75.42177997 63.85938644 77.65814972 C63.84384216 78.93278076 63.82829788 80.2074118 63.81228256 81.52066803 C63.65406418 84.4945755 63.65406418 84.4945755 62.65406418 86.4945755 C61.17499526 86.52146766 59.69578935 86.54092172 58.21656418 86.5570755 C57.39285324 86.56867706 56.5691423 86.58027863 55.72047043 86.59223175 C53.65406418 86.4945755 53.65406418 86.4945755 52.65406418 85.4945755 C52.52990198 83.22537325 52.4760267 80.952311 52.44874191 78.67987823 C52.43884232 77.96772156 52.42894272 77.25556488 52.41874313 76.5218277 C52.38704206 74.15730922 52.36233694 71.79277061 52.33765793 69.42816925 C52.31709581 67.79291498 52.29609955 66.15766612 52.27468491 64.52242279 C52.21938746 60.21028764 52.17001217 55.89810392 52.12183762 51.58588409 C52.07167845 47.18886726 52.01596331 42.7919213 51.9607048 38.39496613 C51.85302943 29.76156077 51.75211862 21.12809549 51.65406418 12.4945755 C41.75406418 12.4945755 31.85406418 12.4945755 21.65406418 12.4945755 C23.96406418 15.7945755 26.27406418 19.0945755 28.65406418 22.4945755 C33.54427819 32.02988001 34.25213051 43.25838752 31.95875168 53.643013 C28.06735899 65.31719108 20.69577518 75.07164612 9.77906418 80.8070755 C-0.99764301 85.83352475 -10.76612451 87.17129382 -22.15843582 83.3695755 C-23.21675613 82.97512238 -24.27507645 82.58066925 -25.36546707 82.174263 C-30.58979081 80.98287069 -34.01269657 83.78630097 -38.34593582 86.4945755 C-46.34593582 91.4945755 -46.34593582 91.4945755 -51.34593582 91.4945755 C-51.34593582 90.8345755 -51.34593582 90.1745755 -51.34593582 89.4945755 C-49.92584508 88.53939542 -48.50165632 87.58971316 -47.05687332 86.67230988 C-44.17325906 84.68735622 -41.79220168 82.23517498 -39.34593582 79.7445755 C-38.82483231 79.2196048 -38.30372879 78.69463409 -37.76683426 78.15375519 C-33.88842953 74.18803178 -30.50755026 70.06135191 -27.34593582 65.4945755 C-26.64468582 65.7833255 -25.94343582 66.0720755 -25.22093582 66.3695755 C-16.74677144 69.68555287 -8.95458607 71.29996351 -0.04515457 68.4320755 C7.58817941 64.93386018 12.28915816 60.7125176 15.75172043 53.0727005 C18.94213279 43.95723662 17.59907244 35.82912158 13.61890793 27.268013 C10.47263855 21.57273217 6.03994612 17.98196155 -0.14281082 15.8852005 C-9.27122142 14.26668798 -18.34998429 14.61194127 -26.34593582 19.4945755 C-27.31531082 20.0514505 -28.28468582 20.6083255 -29.28343582 21.1820755 C-39.39920612 28.8205143 -47.72639222 37.97761859 -55.65843582 47.8070755 C-62.39668509 56.1321884 -69.72328478 63.97407054 -77.34593582 71.4945755 C-77.87316238 72.01922394 -78.40038895 72.54387238 -78.94359207 73.08441925 C-87.82838007 81.25842421 -98.39142284 85.16376956 -110.33421707 84.9164505 C-116.41116258 84.51529361 -121.2595864 81.6524148 -126.34593582 78.4945755 C-127.2817952 77.97508331 -128.21765457 77.45559113 -129.18187332 76.92035675 C-130.25308426 76.21459503 -130.25308426 76.21459503 -131.34593582 75.4945755 C-131.34593582 74.8345755 -131.34593582 74.1745755 -131.34593582 73.4945755 C-128.58317405 74.01726016 -126.01984823 74.60327137 -123.34593582 75.4945755 C-111.16931961 76.95660489 -101.54757184 72.05703521 -92.06859207 64.78754425 C-84.50569118 58.41821452 -78.06728467 51.28014204 -71.91234207 43.5727005 C-67.00067365 37.56622657 -61.5449134 32.01470428 -56.1799202 26.4164505 C-54.50728366 24.66365566 -52.85469507 22.89420257 -51.20531082 21.1195755 C-37.91966655 7.04453263 -20.27939205 -4.36913128 0 0 Z " fill="#0000AC" transform="translate(158.3459358215332,18.50542449951172)"/>
<path d="M0 0 C2.89382152 2.10653185 5.6544248 4.22060411 7.9375 7 C7.9375 7.66 7.9375 8.32 7.9375 9 C7.40382813 9.20753906 6.87015625 9.41507813 6.3203125 9.62890625 C-13.38920592 17.77868982 -28.01184777 35.31045025 -41.0703125 51.59765625 C-43.85964635 54.96126471 -46.90880384 57.98272326 -50.0625 61 C-50.825625 61.78375 -51.58875 62.5675 -52.375 63.375 C-53.261875 64.24125 -54.14875 65.1075 -55.0625 66 C-55.75859375 66.69222656 -56.4546875 67.38445312 -57.171875 68.09765625 C-64.88233367 75.45205871 -72.716486 81.22535084 -83.6875 81.625 C-91.30408937 81.21452512 -98.10315302 79.5326227 -103.4375 73.8125 C-110.35574859 64.7188248 -111.80586127 55.16323557 -111.0625 44 C-110.02610217 38.94587812 -108.36782634 34.61065269 -106.0625 30 C-99.7925 30 -93.5225 30 -87.0625 30 C-87.0625 24.72 -87.0625 19.44 -87.0625 14 C-85.4125 13.67 -83.7625 13.34 -82.0625 13 C-82.0625 15.31 -82.0625 17.62 -82.0625 20 C-79.0925 20 -76.1225 20 -73.0625 20 C-73.0625 17.03 -73.0625 14.06 -73.0625 11 C-66.64768742 10.57234583 -61.17654596 12.14256832 -55.0625 14 C-54.80210938 13.25621094 -54.54171875 12.51242188 -54.2734375 11.74609375 C-50.38323894 2.92412735 -41.57628052 -1.50716697 -33.0625 -5 C-21.62386759 -9.03944914 -10.05040565 -6.54522285 0 0 Z M-102.0625 37 C-102.0625 38.32 -102.0625 39.64 -102.0625 41 C-100.7425 40.67 -99.4225 40.34 -98.0625 40 C-98.3925 39.01 -98.7225 38.02 -99.0625 37 C-100.0525 37 -101.0425 37 -102.0625 37 Z " fill="#0000C8" transform="translate(123.0625,11)"/>
<path d="M0 0 C1.13267429 0.00081715 1.13267429 0.00081715 2.2882309 0.00165081 C3.15474777 -0.00254368 4.02126465 -0.00673817 4.91403961 -0.01105976 C5.86683304 -0.00544025 6.81962646 0.00017925 7.80129242 0.00596905 C9.30383827 0.00312153 9.30383827 0.00312153 10.83673859 0.00021648 C14.16028833 -0.00349955 17.48362135 0.00722474 20.80715179 0.01842022 C23.10878727 0.01961167 25.41042325 0.02006526 27.71205902 0.01980877 C32.54082524 0.02137507 37.36951747 0.02967592 42.19826508 0.04307842 C48.39941909 0.06006844 54.6004917 0.06389284 60.80166626 0.06313324 C65.55587802 0.0634047 70.31007184 0.06888197 75.06427765 0.07613468 C77.35131443 0.07932521 79.63835326 0.08128965 81.92539215 0.08202839 C85.11713396 0.08418788 88.30878809 0.0929237 91.50051117 0.1036253 C92.4533046 0.10317211 93.40609802 0.10271893 94.38776398 0.10225201 C95.25428085 0.10651699 96.12079773 0.11078197 97.01357269 0.1151762 C98.14624699 0.11768997 98.14624699 0.11768997 99.30180359 0.12025452 C101.15090179 0.24888897 101.15090179 0.24888897 103.15090179 1.24888897 C103.1740289 9.44579458 103.19181875 17.64268665 103.20271397 25.83961678 C103.20794199 29.64540474 103.21503817 33.45117045 103.22634125 37.25694561 C103.23717299 40.92681441 103.24317924 44.59666175 103.24577904 48.2665453 C103.24763277 49.66963889 103.2512524 51.07273126 103.25663185 52.47581577 C103.26384599 54.43458577 103.26430988 56.39337717 103.26442719 58.35216045 C103.2666478 59.46912807 103.26886841 60.5860957 103.27115631 61.73691082 C103.15090179 64.24888897 103.15090179 64.24888897 102.15090179 65.24888897 C100.78715051 65.34639373 99.4184027 65.37520496 98.05117035 65.37587261 C96.72604683 65.38010235 96.72604683 65.38010235 95.37415314 65.38441753 C94.39749191 65.3823933 93.42083069 65.38036907 92.41457367 65.3782835 C90.88057671 65.38091198 90.88057671 65.38091198 89.3155899 65.38359356 C85.91692688 65.38801424 82.5183154 65.38507332 79.11965179 65.38170147 C76.76935059 65.38237445 74.41904944 65.38334442 72.06874847 65.38460064 C67.13567697 65.38607791 62.20262354 65.38392213 57.26955414 65.37926006 C50.93039512 65.37356277 44.59127843 65.37684162 38.25212097 65.38283253 C33.39672778 65.38643736 28.54134472 65.38529991 23.68595123 65.38270473 C21.34784693 65.38203525 19.00974173 65.38286463 16.67163849 65.38518429 C13.41014403 65.38770954 10.14871917 65.38387201 6.88722992 65.3782835 C5.9105687 65.38030773 4.93390747 65.38233196 3.92765045 65.38441753 C3.04423477 65.38159771 2.16081909 65.37877789 1.25063324 65.37587261 C0.47854774 65.37549559 -0.29353775 65.37511856 -1.08901978 65.37473011 C-2.84909821 65.24888897 -2.84909821 65.24888897 -3.84909821 64.24888897 C-3.95355377 62.32671819 -3.98764957 60.40069078 -3.99436188 58.47569561 C-4.00074173 57.2409399 -4.00712158 56.0061842 -4.01369476 54.73401165 C-4.01522333 53.3756899 -4.01633735 52.01736763 -4.01706696 50.65904522 C-4.02027791 49.27521002 -4.02364185 47.89137517 -4.02715302 46.5075407 C-4.03315045 43.60303746 -4.0349923 40.69856399 -4.03440094 37.79405499 C-4.0342993 34.06686751 -4.04795092 30.33987044 -4.06517315 26.61272812 C-4.076276 23.75347289 -4.07832068 20.89426394 -4.07779121 18.03498936 C-4.07897395 16.66062991 -4.08341208 15.28626936 -4.09112358 13.91193104 C-4.10088818 11.99180445 -4.09679035 10.07162235 -4.09201813 8.15147686 C-4.09344315 7.05751095 -4.09486816 5.96354504 -4.09633636 4.83642864 C-3.80392505 1.77611676 -3.19803607 0.43045626 0 0 Z M4.15090179 10.24888897 C4.05252969 11.57932522 4.02011587 12.91482241 4.01808929 14.24888897 C4.01680023 15.05326397 4.01551117 15.85763897 4.01418304 16.68638897 C4.01805023 17.53201397 4.02191742 18.37763897 4.02590179 19.24888897 C4.02203461 20.09451397 4.01816742 20.94013897 4.01418304 21.81138897 C4.01547211 22.61576397 4.01676117 23.42013897 4.01808929 24.24888897 C4.01921722 24.99138897 4.02034515 25.73388897 4.02150726 26.49888897 C3.96147964 28.27714708 3.96147964 28.27714708 5.15090179 29.24888897 C7.91491587 29.34939111 10.65397405 29.38504972 13.41847992 29.3782835 C14.71839119 29.38091198 14.71839119 29.38091198 16.04456329 29.38359356 C18.92377953 29.38801322 21.80293488 29.38507369 24.68215179 29.38170147 C26.67372906 29.38237448 28.66530625 29.38334447 30.65688324 29.38460064 C34.83670074 29.38607777 39.01649692 29.38392258 43.19631195 29.37926006 C48.56692706 29.37356277 53.9374922 29.37684169 59.30810547 29.38283253 C63.422329 29.38643774 67.53654059 29.38529974 71.65076447 29.38270473 C73.63160966 29.38203535 75.61245592 29.38286427 77.59329987 29.38518429 C80.35667055 29.38771016 83.11995914 29.38387115 85.88332367 29.3782835 C86.71037308 29.38030773 87.53742249 29.38233196 88.389534 29.38441753 C92.07146905 29.72207646 92.07146905 29.72207646 95.15090179 28.24888897 C95.2374179 26.83318774 95.25795083 25.41329397 95.24855804 23.99498272 C95.24533539 23.14097881 95.24211273 22.28697491 95.23879242 21.40709209 C95.23041351 20.50926006 95.22203461 19.61142803 95.21340179 18.68638897 C95.20889008 17.78468975 95.20437836 16.88299053 95.19972992 15.95396709 C95.18790404 13.71887583 95.171424 11.4839146 95.15090179 9.24888897 C83.43363392 9.22576682 71.71637143 9.20797454 59.99908543 9.1970768 C54.55887868 9.19184769 49.11868748 9.18474954 43.67848969 9.17344952 C38.43304478 9.16262162 33.18761487 9.15661235 27.94215965 9.15401173 C25.93619233 9.1521573 23.93022588 9.14853635 21.92426491 9.14315891 C19.12487355 9.13594978 16.32554501 9.13489797 13.52614594 9.13536358 C12.68817474 9.1317683 11.85020355 9.12817303 10.98683929 9.1244688 C7.26586749 8.77210192 7.26586749 8.77210192 4.15090179 10.24888897 Z M4.15090179 38.24888897 C4.05252969 39.57932522 4.02011587 40.91482241 4.01808929 42.24888897 C4.01680023 43.05326397 4.01551117 43.85763897 4.01418304 44.68638897 C4.01805023 45.53201397 4.02191742 46.37763897 4.02590179 47.24888897 C4.02203461 48.09451397 4.01816742 48.94013897 4.01418304 49.81138897 C4.01547211 50.61576397 4.01676117 51.42013897 4.01808929 52.24888897 C4.01921722 52.99138897 4.02034515 53.73388897 4.02150726 54.49888897 C3.96147964 56.27714708 3.96147964 56.27714708 5.15090179 57.24888897 C7.91491587 57.34939111 10.65397405 57.38504972 13.41847992 57.3782835 C14.71839119 57.38091198 14.71839119 57.38091198 16.04456329 57.38359356 C18.92377953 57.38801322 21.80293488 57.38507369 24.68215179 57.38170147 C26.67372906 57.38237448 28.66530625 57.38334447 30.65688324 57.38460064 C34.83670074 57.38607777 39.01649692 57.38392258 43.19631195 57.37926006 C48.56692706 57.37356277 53.9374922 57.37684169 59.30810547 57.38283253 C63.422329 57.38643774 67.53654059 57.38529974 71.65076447 57.38270473 C73.63160966 57.38203535 75.61245592 57.38286427 77.59329987 57.38518429 C80.35667055 57.38771016 83.11995914 57.38387115 85.88332367 57.3782835 C86.71037308 57.38030773 87.53742249 57.38233196 88.389534 57.38441753 C92.07146905 57.72207646 92.07146905 57.72207646 95.15090179 56.24888897 C95.24927389 54.91845272 95.28168772 53.58295553 95.28371429 52.24888897 C95.28500336 51.44451397 95.28629242 50.64013897 95.28762054 49.81138897 C95.28375336 48.96576397 95.27988617 48.12013897 95.27590179 47.24888897 C95.27976898 46.40326397 95.28363617 45.55763897 95.28762054 44.68638897 C95.28633148 43.88201397 95.28504242 43.07763897 95.28371429 42.24888897 C95.2820224 41.13513897 95.2820224 41.13513897 95.28029633 39.99888897 C95.34032395 38.22063085 95.34032395 38.22063085 94.15090179 37.24888897 C91.38688772 37.14838683 88.64782953 37.11272822 85.88332367 37.11949444 C85.01671616 37.11774212 84.15010864 37.1159898 83.2572403 37.11418438 C80.37802406 37.10976472 77.49886871 37.11270425 74.61965179 37.11607647 C72.62807453 37.11540346 70.63649734 37.11443347 68.64492035 37.1131773 C64.46510285 37.11170017 60.28530667 37.11385536 56.10549164 37.11851788 C50.73487653 37.12421517 45.36431139 37.12093624 39.99369812 37.11494541 C35.87947459 37.1113402 31.765263 37.1124782 27.65103912 37.1150732 C25.67019393 37.11574258 23.68934767 37.11491367 21.70850372 37.11259365 C18.94513304 37.11006778 16.18184445 37.11390679 13.41847992 37.11949444 C12.59143051 37.11747021 11.7643811 37.11544598 10.91226959 37.1133604 C7.23033454 36.77570148 7.23033454 36.77570148 4.15090179 38.24888897 Z " fill="#000057" transform="translate(447.8490982055664,39.75111103057861)"/>
<path d="M0 0 C1.25470093 -0.00630432 2.50940186 -0.01260864 3.80212402 -0.019104 C5.1773289 -0.01552432 6.55253249 -0.01142239 7.92773438 -0.00683594 C9.33256091 -0.00818267 10.73738698 -0.01012326 12.14221191 -0.01263428 C15.08785434 -0.0155852 18.03337556 -0.01128902 20.97900391 -0.00195312 C24.7588694 0.00944151 28.5384509 0.00288185 32.31830597 -0.00909805 C35.219606 -0.01631759 38.12083846 -0.01402832 41.0221405 -0.00884247 C42.41603122 -0.00750622 43.80992804 -0.00915282 45.20381165 -0.01380157 C47.15019619 -0.01886804 49.09660218 -0.00977964 51.04296875 0 C52.15168335 0.00159119 53.26039795 0.00318237 54.40270996 0.00482178 C57.02148438 0.25878906 57.02148438 0.25878906 59.02148438 2.25878906 C59.48054458 6.57436306 59.34549488 10.92163061 59.33398438 15.25878906 C59.35009766 16.47308594 59.36621094 17.68738281 59.3828125 18.93847656 C59.38345703 20.09605469 59.38410156 21.25363281 59.38476562 22.44628906 C59.38774658 23.51234375 59.39072754 24.57839844 59.39379883 25.67675781 C59.27093506 26.52882813 59.14807129 27.38089844 59.02148438 28.25878906 C55.69572916 30.47595921 54.68542198 30.50422345 50.81567383 30.48583984 C49.75480057 30.48568878 48.69392731 30.48553772 47.60090637 30.48538208 C46.45707993 30.47505951 45.31325348 30.46473694 44.13476562 30.45410156 C42.96262009 30.45127167 41.79047455 30.44844177 40.58280945 30.44552612 C36.83309795 30.4343166 33.08362388 30.40921035 29.33398438 30.38378906 C26.79427428 30.37376027 24.25456044 30.36463425 21.71484375 30.35644531 C15.48364272 30.33437473 9.25258051 30.30088945 3.02148438 30.25878906 C3.35148438 32.56878906 3.68148437 34.87878906 4.02148438 37.25878906 C4.68103119 37.26909653 5.340578 37.27940399 6.02011108 37.2900238 C12.86539927 37.39794286 19.71055192 37.51255245 26.55566406 37.63110352 C29.11260145 37.67449929 31.66956869 37.71617086 34.2265625 37.75610352 C37.89527396 37.81369375 41.56383448 37.87742044 45.23242188 37.94238281 C46.38140961 37.95909531 47.53039734 37.9758078 48.71420288 37.99302673 C49.77515167 38.01297195 50.83610046 38.03291718 51.92919922 38.0534668 C52.8662973 38.06901108 53.80339539 38.08455536 54.76889038 38.10057068 C57.02148438 38.25878906 57.02148438 38.25878906 59.02148438 39.25878906 C59.11914062 45.41113281 59.11914062 45.41113281 59.02148438 47.25878906 C57.20732555 49.07294789 54.39702736 48.38649479 51.95703125 48.38818359 C50.00996277 48.39291183 50.00996277 48.39291183 48.02355957 48.3977356 C46.59578416 48.39594582 45.16800906 48.39389486 43.74023438 48.39160156 C42.286743 48.39227464 40.83325173 48.3932447 39.37976074 48.39450073 C36.32982311 48.39597752 33.27991471 48.39382376 30.22998047 48.38916016 C26.31217878 48.38346287 22.39444559 48.38674197 18.47664642 48.39273262 C15.47417684 48.39633875 12.47172361 48.39519941 9.46925354 48.39260483 C8.024297 48.3919357 6.57933899 48.39276348 5.13438416 48.39508438 C3.11823554 48.39761171 1.10208175 48.39307958 -0.9140625 48.38818359 C-2.6382843 48.3869902 -2.6382843 48.3869902 -4.39733887 48.38577271 C-6.97851562 48.25878906 -6.97851562 48.25878906 -7.97851562 47.25878906 C-8.0817376 45.8575357 -8.11700992 44.45117637 -8.1237793 43.04614258 C-8.13015915 42.15173965 -8.136539 41.25733673 -8.14311218 40.33583069 C-8.14422501 39.36294601 -8.14533783 38.39006134 -8.14648438 37.38769531 C-8.14981277 36.39503159 -8.15314117 35.40236786 -8.15657043 34.37962341 C-8.16164403 32.27546656 -8.16397863 30.17130163 -8.16381836 28.06713867 C-8.16600393 24.83857023 -8.18415262 21.6103438 -8.203125 18.38183594 C-8.20605894 16.34212357 -8.20804373 14.30240957 -8.20898438 12.26269531 C-8.21616989 11.29183487 -8.22335541 10.32097443 -8.23075867 9.32069397 C-8.22768204 8.42313889 -8.22460541 7.5255838 -8.22143555 6.60083008 C-8.22286057 5.80886734 -8.22428558 5.0169046 -8.22575378 4.20094299 C-7.61213946 -0.61924124 -3.94897375 0.00566742 0 0 Z M6.02148438 12.25878906 C5.85481771 15.25878906 5.85481771 15.25878906 6.02148438 18.25878906 C6.99781902 19.45450293 6.99781902 19.45450293 8.81214905 19.37904358 C9.59158371 19.37682297 10.37101837 19.37460236 11.17407227 19.37231445 C12.05490982 19.37223892 12.93574738 19.37216339 13.84327698 19.37208557 C15.27920448 19.36434364 15.27920448 19.36434364 16.74414062 19.35644531 C17.71935165 19.35503036 18.69456268 19.35361542 19.69932556 19.35215759 C22.8275758 19.34654039 25.95575561 19.33398499 29.08398438 19.32128906 C31.19921772 19.31627628 33.31445218 19.31171299 35.4296875 19.30761719 C40.62697734 19.29656538 45.82422583 19.27981052 51.02148438 19.25878906 C51.02148438 16.61878906 51.02148438 13.97878906 51.02148438 11.25878906 C44.77352763 11.23351782 38.52558396 11.21595563 32.27758789 11.20385742 C30.15030423 11.19881608 28.02302406 11.19198315 25.89575195 11.18334961 C22.84520612 11.17127527 19.79470592 11.16555892 16.74414062 11.16113281 C15.78685562 11.15597153 14.82957062 11.15081024 13.84327698 11.14549255 C12.52202065 11.14537926 12.52202065 11.14537926 11.17407227 11.14526367 C10.3946376 11.14304306 9.61520294 11.14082245 8.81214905 11.13853455 C6.99781902 11.0630752 6.99781902 11.0630752 6.02148438 12.25878906 Z " fill="#0000C9" transform="translate(233.978515625,56.7412109375)"/>
<path d="M0 0 C2.97 0.495 2.97 0.495 6 1 C6.33 9.91 6.66 18.82 7 28 C9.93318115 28.02505615 12.8663623 28.0501123 15.88842773 28.07592773 C25.55562015 28.15922563 35.22275738 28.24793382 44.88987637 28.33933926 C50.75379448 28.39461666 56.61771754 28.44804422 62.48168945 28.49731445 C68.13566145 28.54488712 73.78957066 28.59722707 79.44346809 28.65294075 C81.60571807 28.67339658 83.76798528 28.69210419 85.93026543 28.70907402 C88.94763325 28.73304684 91.96488119 28.76311075 94.98217773 28.79467773 C95.8856041 28.8004332 96.78903046 28.80618866 97.71983337 28.81211853 C103.88594784 28.88594784 103.88594784 28.88594784 105 30 C105.10087212 32.50924153 105.13972032 34.99036384 105.1328125 37.5 C105.13376923 38.25087891 105.13472595 39.00175781 105.13571167 39.77539062 C105.13639338 41.36588627 105.13453972 42.95638467 105.13037109 44.546875 C105.12502267 46.98964655 105.13031634 49.43223421 105.13671875 51.875 C105.13605797 53.41666707 105.1347768 54.95833403 105.1328125 56.5 C105.13483673 57.23541016 105.13686096 57.97082031 105.13894653 58.72851562 C105.11495161 63.88504839 105.11495161 63.88504839 104 65 C102.63624871 65.09750476 101.26750091 65.12631599 99.90026855 65.12698364 C98.57514503 65.13121338 98.57514503 65.13121338 97.22325134 65.13552856 C96.24659012 65.13350433 95.26992889 65.1314801 94.26367188 65.12939453 C92.72967491 65.13202301 92.72967491 65.13202301 91.16468811 65.13470459 C87.76602508 65.13912527 84.36741361 65.13618435 80.96875 65.1328125 C78.61844879 65.13348548 76.26814765 65.13445545 73.91784668 65.13571167 C68.98477518 65.13718894 64.05172175 65.13503316 59.11865234 65.13037109 C52.77949333 65.1246738 46.44037664 65.12795265 40.10121918 65.13394356 C35.24582599 65.13754839 30.39044292 65.13641094 25.53504944 65.13381577 C23.19694514 65.13314628 20.85883994 65.13397566 18.52073669 65.13629532 C15.25924223 65.13882057 11.99781737 65.13498304 8.73632812 65.12939453 C7.7596669 65.13141876 6.78300568 65.13344299 5.77674866 65.13552856 C4.89333298 65.13270874 4.0099173 65.12988892 3.09973145 65.12698364 C2.32764595 65.12660662 1.55556046 65.12622959 0.76007843 65.12584114 C-1 65 -1 65 -2 64 C-2.10445557 62.07782922 -2.13855137 60.15180181 -2.14526367 58.22680664 C-2.15164352 56.99205093 -2.15802338 55.75729523 -2.16459656 54.48512268 C-2.16612512 53.12680093 -2.16723914 51.76847866 -2.16796875 50.41015625 C-2.1711797 49.02632105 -2.17454365 47.6424862 -2.17805481 46.25865173 C-2.18405224 43.35414849 -2.18589409 40.44967502 -2.18530273 37.54516602 C-2.18520109 33.81797854 -2.19885272 30.09098147 -2.21607494 26.36383915 C-2.2271778 23.50458392 -2.22922247 20.64537497 -2.22869301 17.78610039 C-2.22987574 16.41174094 -2.23431388 15.03738039 -2.24202538 13.66304207 C-2.25178998 11.74291548 -2.24769215 9.82273338 -2.24291992 7.90258789 C-2.24434494 6.80862198 -2.24576996 5.71465607 -2.24723816 4.58753967 C-2 2 -2 2 0 0 Z M6 38 C5.9016279 39.33043625 5.86921408 40.66593344 5.8671875 42 C5.86589844 42.804375 5.86460937 43.60875 5.86328125 44.4375 C5.86714844 45.283125 5.87101563 46.12875 5.875 47 C5.87113281 47.845625 5.86726562 48.69125 5.86328125 49.5625 C5.86457031 50.366875 5.86585938 51.17125 5.8671875 52 C5.86831543 52.7425 5.86944336 53.485 5.87060547 54.25 C5.81057784 56.02825811 5.81057784 56.02825811 7 57 C9.76401408 57.10050214 12.50307226 57.13616075 15.26757812 57.12939453 C16.5674894 57.13202301 16.5674894 57.13202301 17.8936615 57.13470459 C20.77287773 57.13912425 23.65203309 57.13618472 26.53125 57.1328125 C28.52282727 57.13348551 30.51440446 57.1344555 32.50598145 57.13571167 C36.68579895 57.1371888 40.86559513 57.13503361 45.04541016 57.13037109 C50.41602526 57.1246738 55.7865904 57.12795273 61.15720367 57.13394356 C65.2714272 57.13754877 69.38563879 57.13641077 73.49986267 57.13381577 C75.48070786 57.13314639 77.46155412 57.1339753 79.44239807 57.13629532 C82.20576876 57.13882119 84.96905734 57.13498218 87.73242188 57.12939453 C88.55947128 57.13141876 89.38652069 57.13344299 90.2386322 57.13552856 C93.92056725 57.47318749 93.92056725 57.47318749 97 56 C97.0983721 54.66956375 97.13078592 53.33406656 97.1328125 52 C97.13410156 51.195625 97.13539063 50.39125 97.13671875 49.5625 C97.13285156 48.716875 97.12898437 47.87125 97.125 47 C97.12886719 46.154375 97.13273438 45.30875 97.13671875 44.4375 C97.13542969 43.633125 97.13414062 42.82875 97.1328125 42 C97.13112061 40.88625 97.13112061 40.88625 97.12939453 39.75 C97.18942216 37.97174189 97.18942216 37.97174189 96 37 C93.23598592 36.89949786 90.49692774 36.86383925 87.73242188 36.87060547 C86.86581436 36.86885315 85.99920685 36.86710083 85.1063385 36.86529541 C82.22712227 36.86087575 79.34796691 36.86381528 76.46875 36.8671875 C74.47717273 36.86651449 72.48559554 36.8655445 70.49401855 36.86428833 C66.31420105 36.8628112 62.13440487 36.86496639 57.95458984 36.86962891 C52.58397474 36.8753262 47.2134096 36.87204727 41.84279633 36.86605644 C37.7285728 36.86245123 33.61436121 36.86358923 29.50013733 36.86618423 C27.51929214 36.86685361 25.53844588 36.8660247 23.55760193 36.86370468 C20.79423124 36.86117881 18.03094266 36.86501782 15.26757812 36.87060547 C14.44052872 36.86858124 13.61347931 36.86655701 12.7613678 36.86447144 C9.07943275 36.52681251 9.07943275 36.52681251 6 38 Z " fill="#000057" transform="translate(557,40)"/>
<path d="M0 0 C1.84717873 -0.01429802 1.84717873 -0.01429802 3.73167419 -0.02888489 C5.08161447 -0.02862346 6.43155475 -0.02768644 7.78149414 -0.02612305 C9.16150543 -0.03000879 10.54151552 -0.0343432 11.92152405 -0.03910828 C14.81588617 -0.04657595 17.71012633 -0.04627544 20.60449219 -0.04101562 C24.31485277 -0.03522184 28.02471402 -0.05214649 31.73499203 -0.0753603 C34.58572817 -0.09008829 37.43634383 -0.09097062 40.28711128 -0.08785057 C41.65506542 -0.08836432 43.02302621 -0.09361206 44.39094353 -0.10366249 C46.30355909 -0.11598922 48.2162753 -0.1073058 50.12890625 -0.09765625 C51.21763535 -0.09828568 52.30636444 -0.0989151 53.42808533 -0.0995636 C56.12915039 0.2746582 56.12915039 0.2746582 58.01979065 1.57136536 C59.12915039 3.2746582 59.12915039 3.2746582 58.87915039 6.8996582 C58.12915039 10.2746582 58.12915039 10.2746582 57.12915039 11.2746582 C55.44205692 11.39764986 53.74994136 11.45251079 52.05859375 11.47998047 C50.97754868 11.49992569 49.8965036 11.51987091 48.78269958 11.54042053 C47.01866539 11.56548927 47.01866539 11.56548927 45.21899414 11.59106445 C44.02182266 11.61184555 42.82465118 11.63262665 41.59120178 11.65403748 C37.74974553 11.71966099 33.90821838 11.77847723 30.06665039 11.8371582 C27.46963772 11.88033125 24.87263233 11.92394513 22.27563477 11.96801758 C15.89354503 12.07618859 9.51140506 12.175167 3.12915039 12.2746582 C3.12915039 20.5246582 3.12915039 28.7746582 3.12915039 37.2746582 C7.00407227 37.32364258 10.87899414 37.37262695 14.87133789 37.4230957 C18.61112438 37.47705618 22.35084508 37.53438309 26.09057617 37.59204102 C28.69599538 37.63039903 31.30146879 37.66523966 33.90698242 37.6965332 C37.64529842 37.74203572 41.38323904 37.80005446 45.12133789 37.8605957 C46.2921994 37.87214691 47.46306091 37.88369812 48.66940308 37.89559937 C50.29085739 37.9254039 50.29085739 37.9254039 51.94506836 37.95581055 C53.37736282 37.97579605 53.37736282 37.97579605 54.83859253 37.9961853 C57.12915039 38.2746582 57.12915039 38.2746582 59.12915039 40.2746582 C59.37915039 43.2746582 59.37915039 43.2746582 59.12915039 46.2746582 C57.12915039 48.2746582 57.12915039 48.2746582 54.46568298 48.52189636 C53.33618729 48.52047134 52.20669159 48.51904633 51.04296875 48.51757812 C49.76501938 48.52065475 48.48707001 48.52373138 47.1703949 48.52690125 C45.76992615 48.52000402 44.36945919 48.51273709 42.96899414 48.50512695 C41.53935284 48.50393526 40.10971075 48.50348197 38.68006897 48.5037384 C35.68314721 48.50217329 32.68634485 48.4938808 29.68945312 48.48046875 C25.84005237 48.46346349 21.99078275 48.45965482 18.14134884 48.46041393 C15.18948607 48.46014258 12.23765221 48.45466719 9.28579903 48.44741249 C7.86596457 48.44422146 6.44612683 48.44225741 5.02628899 48.44151878 C3.04615991 48.4393607 1.06604295 48.42983151 -0.9140625 48.41992188 C-2.0427626 48.41611008 -3.17146271 48.41229828 -4.33436584 48.40837097 C-6.87084961 48.2746582 -6.87084961 48.2746582 -7.87084961 47.2746582 C-7.97407159 45.87340484 -8.00934391 44.46704551 -8.01611328 43.06201172 C-8.02249313 42.1676088 -8.02887299 41.27320587 -8.03544617 40.35169983 C-8.03655899 39.37881516 -8.03767181 38.40593048 -8.03881836 37.40356445 C-8.04214676 36.41090073 -8.04547516 35.418237 -8.04890442 34.39549255 C-8.05397801 32.2913357 -8.05631261 30.18717077 -8.05615234 28.08300781 C-8.05833791 24.85443937 -8.0764866 21.62621294 -8.09545898 18.39770508 C-8.09839293 16.35799271 -8.10037772 14.31827871 -8.10131836 12.27856445 C-8.10850388 11.30770401 -8.11568939 10.33684357 -8.12309265 9.33656311 C-8.12001602 8.43900803 -8.11693939 7.54145294 -8.11376953 6.61669922 C-8.11519455 5.82473648 -8.11661957 5.03277374 -8.11808777 4.21681213 C-7.51013666 -0.55888525 -3.92527065 0.0166235 0 0 Z " fill="#0000C9" transform="translate(304.870849609375,56.725341796875)"/>
<path d="M0 0 C3.62011046 2.33296007 5.89022378 4.96794755 7.8125 8.8125 C8.36228069 13.8236158 8.37404513 17.70946493 6.0625 22.25 C3.14681132 25.57064544 1.00812054 27.41395982 -3.1875 28.8125 C-4.43660156 28.69132812 -5.68570313 28.57015625 -6.97265625 28.4453125 C-9.55684391 28.41815403 -10.79500923 28.52962177 -12.90966797 30.05371094 C-14.60381174 31.85683472 -16.1203332 33.72354834 -17.625 35.6875 C-18.75741273 37.07324345 -19.89022608 38.45865962 -21.0234375 39.84375 C-21.56581055 40.524375 -22.10818359 41.205 -22.66699219 41.90625 C-31.86604787 53.43904171 -43.18770568 64.77350821 -58.1875 67.8125 C-70.09793842 68.87780314 -78.48886995 65.42273948 -88.1875 58.8125 C-87.8575 57.8225 -87.5275 56.8325 -87.1875 55.8125 C-86.011875 56.3075 -84.83625 56.8025 -83.625 57.3125 C-76.04177788 60.10142582 -69.51558176 58.71297014 -62.1875 55.8125 C-54.44851098 52.05734514 -48.34791894 46.73949285 -42.1875 40.8125 C-41.49785156 40.1628125 -40.80820313 39.513125 -40.09765625 38.84375 C-35.38223867 34.28706925 -31.25263237 29.35617939 -27.16796875 24.23046875 C-25.1875 21.8125 -25.1875 21.8125 -23.453125 20.2890625 C-21.68327011 18.22423179 -21.82009679 16.68429455 -21.75 14 C-21.38101358 9.21710059 -20.4908213 6.46353933 -17.1875 2.8125 C-11.73553522 -1.51660355 -6.67616829 -2.48719995 0 0 Z M-14.1875 9.8125 C-15.33114857 13.31968894 -15.45956511 15.10833147 -14.125 18.5625 C-11.61369398 21.47885538 -9.98483371 22.21683981 -6.1875 22.8125 C-1.8613372 21.28337921 -1.8613372 21.28337921 0.8125 17.8125 C1.16769903 13.97635043 1.35974594 11.66620366 -0.75 8.375 C-5.31320801 5.44986666 -10.55155022 5.61717333 -14.1875 9.8125 Z " fill="#00007B" transform="translate(144.1875,49.1875)"/>
<path d="M0 0 C2.93447357 2.93447357 2.46158423 6.18259456 2.625 10.125 C2.66367187 10.87910156 2.70234375 11.63320312 2.7421875 12.41015625 C2.83651031 14.27303184 2.91934662 16.13648255 3 18 C3.65954681 18.00808685 4.31909363 18.01617371 4.99862671 18.02450562 C11.84401207 18.11035572 18.68910129 18.20985003 25.53417969 18.31738281 C28.09109537 18.3557398 30.64806625 18.39058062 33.20507812 18.421875 C36.87389909 18.46737976 40.54233773 18.5253981 44.2109375 18.5859375 C45.9344191 18.60326431 45.9344191 18.60326431 47.69271851 18.62094116 C48.7536673 18.64081085 49.81461609 18.66068054 50.90771484 18.68115234 C51.84481293 18.69447601 52.78191101 18.70779968 53.74740601 18.7215271 C56 19 56 19 58 21 C58.24291992 23.59790039 58.24291992 23.59790039 58.23046875 26.84765625 C58.22853516 28.00974609 58.22660156 29.17183594 58.22460938 30.36914062 C58.21236328 31.58794922 58.20011719 32.80675781 58.1875 34.0625 C58.1865332 35.89651367 58.1865332 35.89651367 58.18554688 37.76757812 C58.14011056 46.85988944 58.14011056 46.85988944 57 48 C55.1875 48.1328125 55.1875 48.1328125 53 48.125 C52.278125 48.12757812 51.55625 48.13015625 50.8125 48.1328125 C49 48 49 48 48 47 C47.67 41.72 47.34 36.44 47 31 C32.15 30.67 17.3 30.34 2 30 C2 35.61 2 41.22 2 47 C0.10511048 48.89488952 -2.57139146 48.18019112 -5.08984375 48.23046875 C-7 48 -7 48 -9 46 C-9.26069641 44.10253906 -9.26069641 44.10253906 -9.2746582 41.765625 C-9.28419022 40.89131836 -9.29372223 40.01701172 -9.30354309 39.11621094 C-9.30263168 38.17036133 -9.30172028 37.22451172 -9.30078125 36.25 C-9.30506638 35.28094727 -9.3093515 34.31189453 -9.31376648 33.31347656 C-9.31951558 31.26237775 -9.32000579 29.21125854 -9.31567383 27.16015625 C-9.31251272 24.01266928 -9.33596993 20.86612073 -9.36132812 17.71875 C-9.36360085 15.72916786 -9.36430474 13.73958318 -9.36328125 11.75 C-9.372491 10.80415039 -9.38170074 9.85830078 -9.39118958 8.88378906 C-9.38496078 8.00948242 -9.37873199 7.13517578 -9.37231445 6.234375 C-9.37294388 5.46319336 -9.3735733 4.69201172 -9.3742218 3.89746094 C-9.25072861 3.27129883 -9.12723541 2.64513672 -9 2 C-5.54754176 -0.30163882 -4.05261287 -0.34490322 0 0 Z " fill="#0000C9" transform="translate(376,57)"/>
<path d="M0 0 C5.94 0 11.88 0 18 0 C18 5.94 18 11.88 18 18 C12.06 18 6.12 18 0 18 C0 12.06 0 6.12 0 0 Z " fill="#0000C9" transform="translate(16,22)"/>
<path d="M0 0 C3.96 0 7.92 0 12 0 C12 3.96 12 7.92 12 12 C8.04 12 4.08 12 0 12 C0 8.04 0 4.08 0 0 Z " fill="#0000C8" transform="translate(30,9)"/>
<path d="M0 0 C2.64 0 5.28 0 8 0 C8 2.64 8 5.28 8 8 C5.36 8 2.72 8 0 8 C0 5.36 0 2.72 0 0 Z " fill="#009BFE" transform="translate(21,4)"/>
<path d="M0 0 C1.98 0 3.96 0 6 0 C6 1.98 6 3.96 6 6 C4.02 6 2.04 6 0 6 C0 4.02 0 2.04 0 0 Z " fill="#009BFF" transform="translate(5,39)"/>
<path d="M0 0 C1.98 0 3.96 0 6 0 C6 1.98 6 3.96 6 6 C4.02 6 2.04 6 0 6 C0 4.02 0 2.04 0 0 Z " fill="#00A6FF" transform="translate(42,23)"/>
</svg>
